<svg width="216" height="147" viewBox="0 0 216 147" fill="none" xmlns="http://www.w3.org/2000/svg">
<path d="M183.355 119.665H175.24V106.196H164.11V103.621C164.879 103.534 165.666 103.447 166.736 103.326V87.2019L165.896 8.23913L164.148 7.93168C164.045 7.03727 163.973 6.41304 163.88 5.63043C163.192 5.52795 162.477 5.42236 161.674 5.30124C161.587 4.46894 161.503 3.68012 161.397 2.67702H156.117C156.005 1.67702 155.915 0.89441 155.812 0H38.5104C38.4202 0.801242 38.3331 1.58385 38.2211 2.59006H32.9409C32.8289 3.57453 32.7387 4.35404 32.636 5.2764C31.9888 5.37267 31.3199 5.47205 30.4238 5.6087C30.3491 7.14907 30.2713 8.73602 30.1873 10.4814C29.3596 10.587 28.5756 10.6832 27.6546 10.8012C27.5737 11.5963 27.4897 12.3851 27.387 13.3975H19.3034C19.1914 14.382 19.1012 15.1615 18.9954 16.0932C18.3482 16.1832 17.6761 16.2795 16.8174 16.4006C16.7334 17.1832 16.64 18.0124 16.5436 18.9255C15.6786 19.0124 14.8883 19.0901 14.0077 19.1801C13.9206 20.0342 13.8397 20.8199 13.7495 21.6988C12.9032 21.7919 12.1129 21.8758 11.2043 21.9752V89.7205C11.9884 89.8106 12.7725 89.9006 13.7153 90.0062C13.8024 90.7671 13.8926 91.5497 14.0077 92.5217C14.8012 92.6087 15.635 92.6988 16.5405 92.7981C16.6307 93.5497 16.7085 94.2174 16.7987 94.9783C17.5424 95.0621 18.2144 95.1398 18.9767 95.2267C19.0701 96.0683 19.1572 96.854 19.2661 97.8571H27.3559C27.4585 98.8509 27.5394 99.6366 27.6328 100.547C31.7337 100.745 29.7704 103.848 30.4953 106.115H3.18613C2.95899 107.009 2.79097 107.668 2.58562 108.472C1.76419 108.671 0.939658 108.873 0 109.102V144.115C0.995664 144.202 1.89798 144.28 2.94032 144.373C2.98388 145.295 3.02433 146.149 3.06478 147H213.277V144.419C214.239 144.307 215.07 144.211 216 144.102V133.491C214.286 133.391 212.64 133.298 210.854 133.193C210.689 132.32 210.552 131.606 210.365 130.624H205.427C205.312 129.581 205.225 128.798 205.113 127.807H199.789V125.13H193.56V122.783H187.751V119.661L183.355 119.668V119.665ZM60.6111 10.8727C61.2831 10.7609 61.9023 10.6584 62.6739 10.5311C62.7797 9.7795 62.8855 9 63.0131 8.09627C63.8314 8.01553 64.6217 7.94099 65.5334 7.85093C65.6329 7.17081 65.7325 6.5 65.857 5.67702H155.713C155.818 6.31988 155.93 6.98447 156.08 7.8913H161.332V103.248C160.517 103.339 159.729 103.422 158.824 103.522C158.737 104.339 158.653 105.124 158.553 106.043H63.1687C62.9789 104.363 62.8015 102.789 62.6086 101.096C61.9459 100.888 61.3547 100.705 60.6111 100.475V10.8727ZM71.2553 124.848C70.2503 124.953 69.4662 125.037 68.5826 125.134C68.4924 125.972 68.4083 126.755 68.3119 127.646C67.4811 127.736 66.6939 127.823 65.6889 127.932V133.202C64.6995 133.311 63.9123 133.394 62.982 133.497C62.9011 134.292 62.8202 135.078 62.7268 136.003H60.5955V111.606H169.465V119.724H71.2553V124.845V124.848ZM205.048 133.553C205.138 134.379 205.225 135.165 205.337 136.168H210.294V141.261H109.473V136.208H104.33C104.234 135.186 104.162 134.45 104.062 133.416H98.745C98.6454 132.391 98.5739 131.655 98.4836 130.727C97.6653 130.64 96.8283 130.553 95.9073 130.453C95.8078 129.658 95.7144 128.925 95.5931 127.963C94.0187 127.876 92.4256 127.789 90.6894 127.693V125.199H185.819C185.915 126.065 186.003 126.851 186.111 127.848H191.398C191.513 128.839 191.603 129.621 191.715 130.606H196.634C196.852 131.438 197.023 132.09 197.316 133.214C199.786 133.323 202.35 133.435 205.045 133.553H205.048Z" fill="#C1ABED"/>
<path d="M76.5957 94.9506H153.007C153.128 94.1308 153.228 93.46 153.327 92.786C154.233 92.6867 155.017 92.6028 155.841 92.5128V19.1898C154.911 19.0811 154.077 18.9848 153.259 18.8885C153.175 17.9724 153.109 17.2333 153.032 16.3823H76.6175C76.5179 17.2892 76.4308 18.0749 76.3406 18.9103C75.5783 19.0065 74.9062 19.0935 74.1719 19.1867V92.519C74.9809 92.6339 75.6529 92.7271 76.3686 92.8264C76.4463 93.5469 76.5117 94.1711 76.5957 94.9475V94.9506ZM79.5982 19.6929C83.2946 18.2333 83.7925 18.9258 85.0931 27.05H95.6471C95.7498 26.1308 95.8369 25.3482 95.9489 24.3544H101.232C101.347 23.4786 101.438 22.8109 101.54 22.0314H112.032C112.119 22.7643 112.191 23.3885 112.293 24.2395H117.704V29.7643C118.656 29.8823 119.328 29.9662 120.088 30.0624C120.172 30.9134 120.249 31.6991 120.34 32.5811C121.192 32.668 121.982 32.7488 122.866 32.8388C122.959 33.6774 123.047 34.4631 123.146 35.373H136.6C136.678 34.519 136.746 33.7798 136.843 32.7612H147.758C147.87 31.7022 147.957 30.9134 148.05 30.0407H150.141V35.2767C149.463 35.373 148.791 35.4693 147.873 35.5997V40.5252C146.977 40.755 146.317 40.9258 145.402 41.1587C145.237 42.7395 145.069 44.3264 144.886 46.078C144.148 46.1649 143.367 46.2581 142.394 46.373C142.306 47.1587 142.216 47.9879 142.114 48.901C141.249 48.9848 140.458 49.0625 139.578 49.1494C139.491 49.8885 139.413 50.5593 139.319 51.3264C138.482 51.4196 137.695 51.5097 136.808 51.609C136.715 52.4382 136.625 53.2208 136.525 54.0997C135.81 54.1929 135.138 54.2829 134.335 54.3885C134.251 55.1898 134.17 55.9755 134.064 56.9972H128.793C128.675 57.9972 128.582 58.7798 128.473 59.6929H117.972C117.882 58.8544 117.794 58.0718 117.701 57.1898C116.861 57.0997 116.074 57.0159 115.178 56.9196C115.087 56.0935 115 55.3078 114.901 54.3885H106.693C106.581 55.1929 106.478 55.9227 106.344 56.8792C104.745 56.9693 103.152 57.0593 101.472 57.1556C101.375 58.019 101.288 58.8016 101.176 59.8047H95.8618V67.7612C96.6428 67.8513 97.4269 67.9413 98.491 68.0625V76.1432C99.5053 76.2364 100.249 76.3047 101.273 76.401V86.9289C102.334 87.0438 103.121 87.1308 104.004 87.2302V92.4351H98.6341V87.1618C97.6135 87.0656 96.873 86.9972 95.8462 86.901V76.3761C94.7852 76.2581 93.998 76.1711 92.9837 76.0593V65.7333C92.1063 65.5562 91.4435 65.4258 90.5848 65.2519V57.227C89.6296 57.0656 88.8579 56.9382 87.8467 56.7674V46.4196C86.8324 46.3016 86.0483 46.2115 84.9904 46.0904V38.0128C83.9885 37.8885 83.2511 37.7985 82.243 37.6742V27.2426C81.1975 27.1246 80.4103 27.0376 79.5982 26.9444V19.6929Z" fill="#C1ABED"/>
</svg>
